Coordinates
version=1
nRows=29
nColumns=24
inDegrees=yes

Units are S.I. units (second, meters, Newtons, ...)
Angles are in degrees.

endheader
time	pelvis_tilt	pelvis_list	pelvis_rotation	pelvis_tx	pelvis_ty	pelvis_tz	hip_flexion_r	hip_adduction_r	hip_rotation_r	knee_angle_r	ankle_angle_r	subtalar_angle_r	mtp_angle_r	hip_flexion_l	hip_adduction_l	hip_rotation_l	knee_angle_l	ankle_angle_l	subtalar_angle_l	mtp_angle_l	lumbar_extension	lumbar_bending	lumbar_rotation
      0.94650000	      2.06314799	      2.83341442	     -3.40196226	     -0.15483361	      1.01103915	      0.28027453	    -15.40822725	     -1.18884270	      1.12054234	     -6.38258299	     11.35733058	    -10.76351524	      3.12739193	     16.86233916	      2.31406343	     -9.10757486	      0.81931292	     -0.05111599	     -6.92866816	      0.11655694	     -6.97765138	     -2.99985662	     12.15139666
      0.95066667	      2.12748036	      2.84576332	     -3.40513086	     -0.14907132	      1.01060802	      0.27976053	    -15.55092088	     -1.26343570	      1.01298485	     -6.95876367	     11.52652314	    -10.45902599	      3.09319517	     16.68434275	      2.40460024	     -8.92923243	      1.02301915	     -0.03664848	     -6.96486990	      0.15892147	     -7.02029385	     -3.03816657	     12.20592119
      0.95483333	      2.14594792	      2.86108454	     -3.39221754	     -0.14330000	      1.01015567	      0.27922675	    -15.62412027	     -1.33138075	      0.95041224	     -7.57987081	     11.65669202	    -10.31237487	      3.07335079	     16.57768731	      2.49586004	     -8.70932418	      1.10059805	     -0.03830569	     -7.01911770	      0.20412508	     -7.01359054	     -3.06074320	     12.23150013
      0.95900000	      2.16477704	      2.88700716	     -3.38649421	     -0.13748238	      1.00974693	      0.27867907	    -15.66452276	     -1.41831236	      0.84243075	     -8.26564253	     11.76808699	    -10.08752230	      3.06622869	     16.46028338	      2.59929482	     -8.45268873	      1.11964799	     -0.08189724	     -7.14475984	      0.27025138	     -6.98222291	     -3.09077968	     12.26070624
      0.96316667	      2.21249790	      2.93156357	     -3.37190512	     -0.13168954	      1.00941077	      0.27814992	    -15.72314517	     -1.51836007	      0.78656866	     -8.97777054	     11.87345477	     -9.95859093	      3.07635906	     16.33399310	      2.72085283	     -8.17719005	      1.02558850	     -0.13963837	     -7.24528148	      0.32635982	     -7.01545919	     -3.16836647	     12.27949257
      0.96733333	      2.24366723	      2.98238823	     -3.36982131	     -0.12583150	      1.00909195	      0.27758415	    -15.71805181	     -1.63855605	      0.65302316	     -9.77995860	     11.94955528	     -9.67933224	      3.11536486	     16.19917167	      2.85282721	     -7.84287930	      0.91698601	     -0.26147538	     -7.46676996	      0.41810060	     -6.98962907	     -3.23116667	     12.29637797
      0.97150000	      2.25812918	      3.04724355	     -3.35868275	     -0.11997580	      1.00878248	      0.27703590	    -15.67617371	     -1.76312993	      0.58466726	    -10.62306786	     12.01553622	     -9.54181820	      3.16564057	     16.10874797	      2.99419055	     -7.51063848	      0.69497174	     -0.38811371	     -7.65271273	      0.49839868	     -6.97105956	     -3.32237449	     12.30972073
      0.97566667	      2.27909282	      3.12022155	     -3.34971859	     -0.11409517	      1.00852275	      0.27647230	    -15.60469259	     -1.90189073	      0.47593800	    -11.53610794	     12.05468462	     -9.33101495	      3.23986371	     16.00489900	      3.14682192	     -7.15035941	      0.43399680	     -0.56667980	     -7.89598134	      0.58813483	     -6.94409950	     -3.43142555	     12.31999356
      0.97983333	      2.31073744	      3.19894763	     -3.34566992	     -0.10818940	      1.00829954	      0.27589613	    -15.51515985	     -2.05164666	      0.36694888	    -12.50706364	     12.05090886	     -9.12318833	      3.33898394	     15.88522690	      3.30681218	     -6.77503850	      0.13718413	     -0.77264513	     -8.16042900	      0.68689352	     -6.92746883	     -3.53860343	     12.31851972
      0.98400000	      2.37767936	      3.28086423	     -3.32518298	     -0.10225518	      1.00816542	      0.27527958	    -15.44226891	     -2.20657319	      0.20885839	    -13.51799896	     11.96144105	     -8.88969909	      3.75402631	     15.69851200	      3.48496665	     -6.27332245	     -0.13673321	     -1.06384514	     -8.62417595	      1.04836033	     -6.93973123	     -3.64047261	     12.32372996
      0.98816667	      2.35592724	      3.36548567	     -3.35218845	     -0.09632894	      1.00793818	      0.27472250	    -15.20130916	     -2.37206912	      0.13150688	    -14.66406066	     11.93370938	     -8.67466199	      3.92681682	     15.64989822	      3.63599098	     -5.98311619	     -0.53343905	     -1.30710646	     -8.81733006	      1.17580109	     -6.84781604	     -3.74730918	     12.30231999
      0.99233333	      2.40677384	      3.47268177	     -3.35097189	     -0.09038784	      1.00782502	      0.27411691	    -15.02291225	     -2.56242360	     -0.01213087	    -15.84285997	     11.84675492	     -8.43735643	      4.15201417	     15.51129343	      3.82874727	     -5.60399201	     -0.92626454	     -1.59913134	     -9.14586955	      1.32077764	     -6.84696660	     -3.89195954	     12.29178251
      0.99650000	      2.42699783	      3.57777349	     -3.35201624	     -0.08443235	      1.00769556	      0.27351150	    -14.77502851	     -2.74937521	     -0.13576026	    -17.08734811	     11.69800790	     -8.25391925	      4.40849017	     15.40953460	      4.01457067	     -5.24324751	     -1.34873346	     -1.90542569	     -9.46707228	      1.46600374	     -6.80407393	     -4.03265739	     12.26539810
      1.00066667	      2.43715697	      3.67336004	     -3.33562657	     -0.07851033	      1.00757485	      0.27286639	    -14.48040390	     -2.92562882	     -0.27799709	    -18.39228184	     11.49564223	     -8.03791949	      4.79815119	     15.33963866	      4.19320265	     -4.87571746	     -1.82690161	     -2.24639876	     -9.85624469	      1.66053983	     -6.76954366	     -4.15735660	     12.24748864
      1.00483333	      2.46774229	      3.80282925	     -3.35469486	     -0.07252070	      1.00750319	      0.27225289	    -14.15999438	     -3.15268610	     -0.41026825	    -19.78546327	     11.26952814	     -7.86788199	      5.15770890	     15.21616826	      4.40057709	     -4.57539498	     -2.25676207	     -2.56443899	    -10.14225026	      1.81968846	     -6.72076217	     -4.32549211	     12.20160834
      1.00900000	      2.51083659	      3.91483295	     -3.33827356	     -0.06657713	      1.00746788	      0.27161569	    -13.84161273	     -3.35020023	     -0.54523519	    -21.17543532	     10.82194650	     -7.89033711	     11.01308468	     15.10735607	      4.59313623	     -4.26638164	     -2.74860471	     -2.90714383	    -10.50084041	      4.19046739	     -6.71844448	     -4.48540968	     12.12275991
      1.01316667	      2.55570375	      4.05582482	     -3.35767610	     -0.06061378	      1.00744767	      0.27099539	    -13.45765313	     -3.59927601	     -0.69671573	    -22.69600765	     10.50154647	     -7.68875605	     11.05054956	     14.99053056	      4.80445101	     -4.07813017	     -3.23770233	     -3.19314247	    -10.69007288	      4.21493810	     -6.69785110	     -4.66901405	     12.11045414
      1.01733333	      2.57755047	      4.19048113	     -3.36195510	     -0.05468245	      1.00740976	      0.27034668	    -13.01493639	     -3.83909970	     -0.84740476	    -24.26781822	     10.11218388	     -7.53222738	     11.13084447	     14.90522476	      5.01116641	     -3.85931131	     -3.74441513	     -3.47629955	    -10.95689408	      4.23972904	     -6.65709790	     -4.84451954	     12.05760280
      1.02150000	      2.61841498	      4.33728086	     -3.36624175	     -0.04876988	      1.00741184	      0.26968508	    -12.55781512	     -4.09829035	     -1.00398586	    -25.89161124	      9.66990654	     -7.39065267	     11.25795185	     14.79985444	      5.23079836	     -3.66406025	     -4.25354813	     -3.74710445	    -11.22768135	      4.26370032	     -6.64088364	     -5.03391648	     11.99150666
      1.02566667	      2.65868952	      4.49112109	     -3.37275342	     -0.04286843	      1.00742541	      0.26903357	    -12.06526435	     -4.36877580	     -1.15578962	    -27.56416823	      9.17085324	     -7.28283575	     11.41029508	     14.69281911	      5.45315147	     -3.50226377	     -4.76230129	     -3.97814803	    -11.45903029	      4.28271305	     -6.62390696	     -5.23046153	     11.91519121
      1.02983333	      2.68205478	      4.64529725	     -3.37487602	     -0.03700011	      1.00742508	      0.26837002	    -11.51901698	     -4.64267292	     -1.30735953	    -29.28622327	      8.63299549	     -7.18403703	     11.60434585	     14.61125030	      5.67328378	     -3.36051005	     -5.28766484	     -4.17765042	    -11.68619869	      4.29846674	     -6.59101426	     -5.43074338	     11.83026662
      1.03400000	      2.70716937	      4.80712608	     -3.37550037	     -0.03115957	      1.00742731	      0.26770053	    -10.94277425	     -4.92890008	     -1.45601177	    -31.05015948	      8.05141158	     -7.11659578	     11.83686105	     14.52911127	      5.89946476	     -3.24296066	     -5.81685179	     -4.33353694	    -11.89116200	      4.30945232	     -6.56708258	     -5.64176923	     11.73603391
      1.03816667	      2.79097212	      4.99850966	     -3.39028364	     -0.02532322	      1.00753620	      0.26707003	    -10.41278581	     -5.25072425	     -1.57882944	    -32.82028706	      7.39021837	     -7.13454742	     11.97090624	     14.36282699	      6.15556121	     -3.15066737	     -6.30660517	     -4.40583412	    -11.99902379	      4.31291619	     -6.60530756	     -5.89973896	     11.64440250
      1.04233333	      2.83409903	      5.18158455	     -3.38077355	     -0.01955432	      1.00757400	      0.26635589	     -9.79957966	     -5.58102279	     -1.76931190	    -34.64386559	      6.73830229	     -7.08178644	     16.11840961	     14.24922747	      6.41176152	     -3.01966896	     -6.80803811	     -4.51881916	    -12.27858370	      4.23553478	     -6.60942389	     -6.12568231	     11.51748193
      1.04650000	      2.83953044	      5.36145435	     -3.38998237	     -0.01381865	      1.00759035	      0.26572320	     -9.12107462	     -5.88849911	     -1.86194598	    -36.48537718	      6.06869817	     -7.17832614	     16.12242485	     14.18732058	      6.64426676	     -2.99440068	     -7.33710036	     -4.52641978	    -12.35087632	      4.22970210	     -6.56729420	     -6.35834807	     11.39817934
      1.05066667	      2.88942320	      5.55860339	     -3.39677622	     -0.00811228	      1.00767399	      0.26508819	     -8.47437463	     -6.22354283	     -1.97276124	    -38.33276371	      5.40852214	     -7.25465438	     16.12115763	     14.05802215	      6.90165983	     -2.94774882	     -7.82642124	     -4.48859132	    -12.44192625	      4.21890339	     -6.58039142	     -6.61194806	     11.27164525
      1.05483333	      2.96167005	      5.76564578	     -3.40361164	     -0.00242735	      1.00780004	      0.26443763	     -7.84055719	     -6.57599000	     -2.08837914	    -40.17259477	      4.74130743	     -7.38357834	     16.10748721	     13.88695383	      7.17530112	     -2.89842964	     -8.28065133	     -4.38844501	    -12.53112093	      4.20875064	     -6.61043621	     -6.86695927	     11.14705781
      1.05900000	      2.95803863	      5.95912393	     -3.39833012	      0.00317209	      1.00782735	      0.26379575	     -7.09872006	     -6.90281642	     -2.17825029	    -42.02913184	      4.12577071	     -7.52581111	     16.06544560	     13.81584610	      7.42757058	     -2.86320794	     -8.76820762	     -4.30166495	    -12.64860739	      4.18366954	     -6.57707500	     -7.11207999	     10.97897080
      1.06316667	      2.99647179	      6.16344169	     -3.40015897	      0.00874440	      1.00793362	      0.26318658	     -6.39795067	     -7.23905515	     -2.24954437	    -43.85648494	      3.52216887	     -7.73967914	     15.99455059	     13.67099769	      7.69531442	     -2.80821518	     -9.19973880	     -4.15134014	    -12.73288702	      4.15686821	     -6.59491414	     -7.38678725	     10.82252942
